<svg width="180" height="59" viewBox="0 0 160 50" fill="none" xmlns="http://www.w3.org/2000/svg">
    <path d="M36.3327 27.3237V33.6163H35.521V27.3237H36.3327Z" fill="white"/>
    <path d="M37.8166 30.3217C37.8166 29.8547 37.8074 29.4719 37.7798 29.0982H38.5086L38.5547 29.8455H38.5731C38.7967 29.4166 39.3204 28.9956 40.0663 28.9956C40.6912 28.9956 41.6634 29.3692 41.6634 30.919V33.6173H40.8412V31.0124C40.8412 30.2836 40.5702 29.6771 39.7953 29.6771C39.2533 29.6771 38.8336 30.0599 38.6941 30.5178C38.6573 30.6204 38.6376 30.7611 38.6376 30.9006V33.6173H37.8153V30.3217H37.8166Z" fill="white"/>
    <path d="M42.9992 30.3217C42.9992 29.8547 42.99 29.4719 42.9624 29.0982H43.6912L43.7373 29.8455H43.7557C43.9794 29.4166 44.503 28.9956 45.2489 28.9956C45.8738 28.9956 46.8461 29.3692 46.8461 30.919V33.6173H46.0238V31.0124C46.0238 30.2836 45.7528 29.6771 44.9779 29.6771C44.4359 29.6771 44.0162 30.0599 43.8767 30.5178C43.8399 30.6204 43.8202 30.7611 43.8202 30.9006V33.6173H42.9979V30.3217H42.9992Z" fill="white"/>
    <path d="M52.2697 31.3203C52.2697 32.9911 51.1119 33.7199 50.02 33.7199C48.7965 33.7199 47.8545 32.824 47.8545 31.3953C47.8545 29.8823 48.8438 28.9956 50.095 28.9956C51.3922 28.9956 52.2697 29.9389 52.2697 31.3203ZM48.6846 31.3676C48.6846 32.357 49.2543 33.1042 50.0568 33.1042C50.8409 33.1042 51.429 32.3662 51.429 31.3492C51.429 30.5835 51.0461 29.6126 50.0752 29.6126C49.1043 29.6126 48.6846 30.5086 48.6846 31.3676Z" fill="white"/>
    <path d="M53.5574 29.0968L54.4442 31.6359C54.5941 32.0464 54.7152 32.42 54.8086 32.7937H54.8362C54.9388 32.42 55.0691 32.0464 55.2191 31.6359L56.0966 29.0968H56.9556L55.1822 33.6159H54.3981L52.6799 29.0968H53.5574Z" fill="white"/>
    <path d="M60.195 33.6174L60.1293 33.0477H60.1016C59.849 33.4029 59.3636 33.72 58.7203 33.72C57.8046 33.72 57.3389 33.0753 57.3389 32.4228C57.3389 31.3308 58.3098 30.7322 60.0556 30.7428V30.6493C60.0556 30.2757 59.953 29.6034 59.0281 29.6034C58.6084 29.6034 58.169 29.7337 57.852 29.9402L57.6651 29.3982C58.0388 29.1548 58.5808 28.9969 59.1491 28.9969C60.5305 28.9969 60.8673 29.9402 60.8673 30.8454V32.5359C60.8673 32.928 60.8857 33.3108 60.9423 33.6187H60.195V33.6174ZM60.074 31.3111C59.1781 31.2927 58.1598 31.4506 58.1598 32.3294C58.1598 32.8609 58.515 33.1135 58.9347 33.1135C59.5228 33.1135 59.8964 32.7398 60.0266 32.357C60.0543 32.2728 60.0727 32.1794 60.0727 32.0952V31.3111H60.074Z" fill="white"/>
    <path d="M63.1458 27.8014V29.0986H64.322V29.7235H63.1458V32.16C63.1458 32.7204 63.305 33.0375 63.7615 33.0375C63.976 33.0375 64.1352 33.0099 64.2378 32.9809L64.2746 33.5966C64.1154 33.6624 63.8641 33.7085 63.5458 33.7085C63.1629 33.7085 62.8551 33.5874 62.6591 33.3625C62.4262 33.1191 62.342 32.7178 62.342 32.1863V29.7209H61.6421V29.0959H62.342V28.0132L63.1458 27.8014Z" fill="white"/>
    <path d="M66.1615 27.8286C66.1707 28.1089 65.9655 28.3325 65.6392 28.3325C65.3498 28.3325 65.1445 28.1089 65.1445 27.8286C65.1445 27.5392 65.359 27.3156 65.6576 27.3156C65.9655 27.3156 66.1615 27.5392 66.1615 27.8286ZM65.2458 33.6173V29.0982H66.0681V33.6173H65.2458Z" fill="white"/>
    <path d="M71.5204 31.3203C71.5204 32.9911 70.3627 33.7199 69.2707 33.7199C68.0472 33.7199 67.1052 32.824 67.1052 31.3953C67.1052 29.8823 68.0946 28.9956 69.3457 28.9956C70.6429 28.9956 71.5204 29.9389 71.5204 31.3203ZM67.9354 31.3676C67.9354 32.357 68.505 33.1042 69.3075 33.1042C70.0916 33.1042 70.6797 32.3662 70.6797 31.3492C70.6797 30.5835 70.2969 29.6126 69.326 29.6126C68.355 29.6126 67.9354 30.5086 67.9354 31.3676Z" fill="white"/>
    <path d="M72.5564 30.3217C72.5564 29.8547 72.5472 29.4719 72.5195 29.0982H73.2484L73.2944 29.8455H73.3128C73.5365 29.4166 74.0601 28.9956 74.8074 28.9956C75.4323 28.9956 76.4045 29.3692 76.4045 30.919V33.6173H75.5823V31.0124C75.5823 30.2836 75.3112 29.6771 74.5364 29.6771C73.9943 29.6771 73.5746 30.0599 73.4352 30.5178C73.3984 30.6204 73.3786 30.7611 73.3786 30.9006V33.6173H72.5564V30.3217Z" fill="white"/>
    <path d="M77.6259 32.778C77.868 32.9372 78.2982 33.1042 78.7086 33.1042C79.3059 33.1042 79.5861 32.8056 79.5861 32.432C79.5861 32.0399 79.3533 31.8255 78.7455 31.6005C77.9337 31.3111 77.5509 30.8624 77.5509 30.3217C77.5509 29.5929 78.139 28.9956 79.1099 28.9956C79.5677 28.9956 79.969 29.1259 80.2216 29.2758L80.0163 29.8731C79.8387 29.7613 79.5125 29.6113 79.0915 29.6113C78.606 29.6113 78.335 29.8915 78.335 30.227C78.335 30.6006 78.606 30.769 79.1941 30.9927C79.9782 31.2913 80.3794 31.6834 80.3794 32.3557C80.3794 33.149 79.7637 33.7094 78.6902 33.7094C78.1955 33.7094 77.7377 33.5884 77.4207 33.4016L77.6259 32.778Z" fill="white"/>
    <path d="M83.499 33.6171V29.7243H82.8635V29.0993H83.499V28.8849C83.499 28.2495 83.6384 27.6706 84.0213 27.3075C84.3291 27.0089 84.7396 26.8878 85.1224 26.8878C85.4119 26.8878 85.6645 26.9536 85.8223 27.0181L85.7105 27.6535C85.5895 27.5969 85.4211 27.5509 85.1882 27.5509C84.4883 27.5509 84.3107 28.1666 84.3107 28.8586V29.102H85.4026V29.7269H84.3107V33.6198H83.499V33.6171Z" fill="white"/>
    <path d="M90.1083 31.3203C90.1083 32.9911 88.9506 33.7199 87.8586 33.7199C86.6351 33.7199 85.6931 32.824 85.6931 31.3953C85.6931 29.8823 86.6825 28.9956 87.9336 28.9956C89.2308 28.9956 90.1083 29.9389 90.1083 31.3203ZM86.5233 31.3676C86.5233 32.357 87.0929 33.1042 87.8954 33.1042C88.6795 33.1042 89.2676 32.3662 89.2676 31.3492C89.2676 30.5835 88.8848 29.6126 87.9139 29.6126C86.9429 29.6126 86.5233 30.5086 86.5233 31.3676Z" fill="white"/>
    <path d="M91.1433 30.5086C91.1433 29.9757 91.1341 29.5192 91.1064 29.0982H91.8248L91.8524 29.9849H91.8892C92.0945 29.3784 92.5891 28.9956 93.1404 28.9956C93.2338 28.9956 93.2996 29.0048 93.3732 29.0232V29.7981C93.289 29.7797 93.2048 29.7705 93.093 29.7705C92.5141 29.7705 92.1037 30.2099 91.9918 30.8256C91.9734 30.9374 91.955 31.069 91.955 31.2085V33.6173H91.1433V30.5086Z" fill="white"/>
    <path d="M96.2043 27.3237H97.0161V32.9348H99.7052V33.6163H96.2043V27.3237Z" fill="white"/>
    <path d="M101.498 27.8286C101.507 28.1089 101.302 28.3325 100.975 28.3325C100.686 28.3325 100.481 28.1089 100.481 27.8286C100.481 27.5392 100.695 27.3156 100.994 27.3156C101.302 27.3156 101.498 27.5392 101.498 27.8286ZM100.583 33.6173V29.0982H101.406V33.6173H100.583Z" fill="white"/>
    <path d="M102.852 33.6171V29.7243H102.216V29.0993H102.852V28.8849C102.852 28.2495 102.991 27.6706 103.374 27.3075C103.682 27.0089 104.092 26.8878 104.475 26.8878C104.764 26.8878 105.017 26.9536 105.175 27.0181L105.063 27.6535C104.942 27.5969 104.774 27.5509 104.541 27.5509C103.841 27.5509 103.663 28.1666 103.663 28.8586V29.102H104.755V29.7269H103.663V33.6198H102.852V33.6171Z" fill="white"/>
    <path d="M105.83 31.5071C105.848 32.6188 106.559 33.0753 107.38 33.0753C107.968 33.0753 108.323 32.9727 108.631 32.8424L108.77 33.4305C108.481 33.5608 107.986 33.7107 107.266 33.7107C105.876 33.7107 105.044 32.7964 105.044 31.4321C105.044 30.0691 105.847 28.9956 107.164 28.9956C108.639 28.9956 109.031 30.2928 109.031 31.1243C109.031 31.2927 109.012 31.4229 109.003 31.5071H105.83ZM108.239 30.919C108.248 30.3967 108.024 29.5837 107.099 29.5837C106.268 29.5837 105.905 30.3494 105.839 30.919H108.239Z" fill="white"/>
    <path d="M108.636 9.2583C109.463 9.2583 110.828 9.2583 110.828 9.2583C110.828 9.2583 110.839 16.0521 110.812 19.4227C110.775 20.1068 110.476 20.7067 110.151 21.2606C108.825 23.5208 105.16 24.5167 101.738 23.6037C99.0897 22.8959 97.6281 20.8935 97.6215 17.9373C97.6149 15.0772 97.6202 12.2171 97.6202 9.2833C98.7568 9.2833 99.7751 9.2833 101.013 9.2833C101.013 10.0319 101.013 10.8094 101.013 11.5869C101.013 13.8932 100.975 16.1994 101.025 18.5044C101.078 20.9159 102.659 22.513 104.869 22.4959C107.016 22.4788 108.573 20.9172 108.62 18.5623C108.683 15.5101 108.636 12.4552 108.636 9.2583Z" fill="white"/>
    <path d="M117.979 17.3712C117.979 19.5538 117.979 21.4785 117.979 23.5151C116.785 23.5151 115.64 23.5151 114.398 23.5151C114.398 18.8223 114.398 9.11708 114.398 9.11708C114.398 9.11708 118.995 8.93684 121.243 9.25785C123.851 9.63148 125.174 11.4707 125.043 13.5809C124.92 15.5372 123.161 17.1278 120.775 17.358C119.9 17.4422 119.011 17.3712 117.979 17.3712ZM118.048 10.7011C118.048 12.4298 118.048 14.1493 118.048 15.8951C119.234 16.1332 120.453 16.0858 120.863 14.9202C121.201 13.9598 121.222 12.6942 120.887 11.7378C120.488 10.5998 119.262 10.4853 118.048 10.7011Z" fill="white"/>
    <path d="M83.4819 19.9519C84.5568 19.9519 85.5882 19.9519 85.5882 19.9519C85.5882 19.9519 85.7435 20.3755 86.5499 21.2846C87.5037 22.3581 89.3285 22.8844 90.5625 22.1016C91.5321 21.4872 91.7426 20.2321 90.8506 19.3033C90.1849 18.61 89.2995 18.1153 88.4747 17.5877C87.3301 16.8563 86.0421 16.3077 85.0107 15.4459C83.2057 13.9369 83.3609 11.5425 85.2001 10.098C88.4207 7.57073 93.4042 9.0429 94.3567 12.8042C93.1911 12.8068 92.2465 12.8042 92.2465 12.8042C92.2465 12.8042 92.0044 12.3003 91.5742 11.6952C91.1032 11.0334 90.2678 10.3388 88.9864 10.394C88.0155 10.4361 87.1104 10.6479 86.721 11.6754C86.3131 12.7555 86.8972 13.5278 87.7261 14.0619C88.8286 14.7737 90.0231 15.3407 91.1493 16.0182C91.9505 16.5011 92.7793 16.9813 93.4608 17.6088C94.7606 18.8073 94.8948 20.5347 93.8094 21.9332C92.257 23.9329 90.0376 24.0816 87.78 23.829C85.7014 23.5961 84.17 22.5449 83.5635 20.4216C83.5398 20.336 83.5004 20.1571 83.4819 19.9519Z" fill="white"/>
    <path d="M73.1238 22.2118C75.505 22.2118 77.7955 22.2118 80.1675 22.2118C80.1675 22.7118 80.1675 23.1051 80.1675 23.563C76.6838 23.563 73.2658 23.563 69.7532 23.563C69.7532 18.8163 69.7532 14.0932 69.7532 9.20972C73.0501 9.20972 80.1557 9.20972 80.1557 9.20972V10.3148C80.1557 10.3148 75.5142 10.3148 73.1224 10.3148C73.1224 11.9593 73.1224 13.4473 73.1224 15.1457C74.7867 15.1457 78.919 15.1457 78.919 15.1457L78.915 16.2679C78.915 16.2679 75.0985 16.2679 73.1238 16.2679C73.1238 18.2716 73.1238 20.1371 73.1238 22.2118Z" fill="white"/>
    <path d="M56.1577 23.5545C56.1577 18.767 56.1577 14.0742 56.1577 9.29333C59.5191 9.29333 66.1563 9.29333 66.1563 9.29333V10.3458C66.1563 10.3458 61.4899 10.3366 59.5204 10.3366C59.5204 11.9482 59.5204 15.0991 59.5204 15.0991H65.2433L65.2459 16.2818L59.5204 16.2739C59.5204 16.2739 59.5204 21.1127 59.5204 23.5545C58.3495 23.5545 57.3312 23.5545 56.1577 23.5545Z" fill="white"/>
    <path d="M38.5558 22.2054C41.1028 22.2054 45.964 22.2054 45.964 22.2054V23.5328C45.964 23.5328 38.8676 23.5328 35.2878 23.5328C35.2878 18.8164 35.2878 14.1276 35.2878 9.32166C36.3035 9.32166 37.352 9.32166 38.5558 9.32166C38.5558 13.5303 38.5558 17.7849 38.5558 22.2054Z" fill="white"/>
    <path d="M52.064 23.5617C50.947 23.5617 49.93 23.5617 48.842 23.5617C48.842 18.8111 48.842 14.1222 48.842 9.31897C49.8643 9.31897 50.9141 9.31897 52.064 9.31897C52.064 14.0038 52.064 18.7255 52.064 23.5617Z" fill="white"/>
    <path d="M30.0898 11.6467H7.78638C7.15621 11.6467 6.64575 12.1572 6.64575 12.7874V35.0921C6.64575 35.7223 7.15621 36.2327 7.78638 36.2327H30.0911C30.7213 36.2327 31.2318 35.7223 31.2318 35.0921V12.786C31.2305 12.1572 30.72 11.6467 30.0898 11.6467Z" fill="#6BD5D1"/>
    <path d="M31.1604 0H25.2113C24.9271 0 24.6956 0.230231 24.6956 0.515717V6.15308C24.6956 6.43725 24.9258 6.6688 25.2113 6.6688H31.1604C31.4446 6.6688 31.6762 6.43857 31.6762 6.15308V0.515717C31.6762 0.230231 31.4459 0 31.1604 0Z" fill="#19C6C0"/>
    <path d="M4.30588 36.4987H1.25105C1.06292 36.4987 0.911621 36.6513 0.911621 36.8381V39.8929C0.911621 40.0811 1.06423 40.2323 1.25105 40.2323H4.30588C4.49401 40.2323 4.64531 40.0797 4.64531 39.8929V36.8381C4.64531 36.6513 4.49401 36.4987 4.30588 36.4987Z" fill="white"/>
    <path d="M18.9289 2.40063H0.920923C0.411784 2.40063 0 2.81242 0 3.32156V21.3296C0 21.8387 0.411784 22.2505 0.920923 22.2505H18.9289C19.4381 22.2505 19.8498 21.8387 19.8498 21.3296V3.32156C19.8498 2.81242 19.4381 2.40063 18.9289 2.40063Z" fill="#00BDF5" fill-opacity="0.85"/>
</svg>
